<mxfile host="app.diagrams.net" modified="2024-05-26T16:23:51.419Z" agent="Mozilla/5.0 (Windows NT 10.0; Win64; x64; rv:126.0) Gecko/20100101 Firefox/126.0" etag="po4C-i9iNL5x3ayBdVK9" version="24.4.8" type="device">
  <diagram name="Seite-1" id="z0DCrYU8apStYery9Ikm">
    <mxGraphModel dx="993" dy="493" grid="1" gridSize="10" guides="1" tooltips="1" connect="1" arrows="1" fold="1" page="1" pageScale="1" pageWidth="827" pageHeight="1169" math="0" shadow="0">
      <root>
        <mxCell id="0" />
        <mxCell id="1" parent="0" />
        <mxCell id="UueAJWfQZIYLhgzw-uvl-111" style="edgeStyle=orthogonalEdgeStyle;rounded=0;orthogonalLoop=1;jettySize=auto;html=1;exitX=0;exitY=0.5;exitDx=0;exitDy=0;entryX=0.498;entryY=0.104;entryDx=0;entryDy=0;entryPerimeter=0;endArrow=none;endFill=0;fillColor=#d5e8d4;strokeColor=#82b366;fontSize=13;" edge="1" parent="1" source="UueAJWfQZIYLhgzw-uvl-174" target="UueAJWfQZIYLhgzw-uvl-178">
          <mxGeometry relative="1" as="geometry" />
        </mxCell>
        <mxCell id="UueAJWfQZIYLhgzw-uvl-112" style="edgeStyle=orthogonalEdgeStyle;rounded=0;orthogonalLoop=1;jettySize=auto;html=1;exitX=0;exitY=0.5;exitDx=0;exitDy=0;entryX=0.501;entryY=0.167;entryDx=0;entryDy=0;entryPerimeter=0;endArrow=none;endFill=0;fillColor=#d5e8d4;strokeColor=#82b366;fontSize=13;" edge="1" parent="1" source="UueAJWfQZIYLhgzw-uvl-173" target="UueAJWfQZIYLhgzw-uvl-175">
          <mxGeometry relative="1" as="geometry" />
        </mxCell>
        <mxCell id="UueAJWfQZIYLhgzw-uvl-113" style="edgeStyle=orthogonalEdgeStyle;rounded=0;orthogonalLoop=1;jettySize=auto;html=1;entryX=0.583;entryY=-0.011;entryDx=0;entryDy=0;entryPerimeter=0;startArrow=none;startFill=0;endArrow=none;endFill=0;strokeColor=#808080;exitX=0;exitY=0;exitDx=0;exitDy=30;exitPerimeter=0;" edge="1" parent="1" source="UueAJWfQZIYLhgzw-uvl-149">
          <mxGeometry relative="1" as="geometry">
            <mxPoint x="521" y="940" as="sourcePoint" />
            <mxPoint x="520.71" y="1070" as="targetPoint" />
            <Array as="points">
              <mxPoint x="581" y="1070" />
            </Array>
          </mxGeometry>
        </mxCell>
        <mxCell id="UueAJWfQZIYLhgzw-uvl-114" style="edgeStyle=orthogonalEdgeStyle;rounded=0;orthogonalLoop=1;jettySize=auto;html=1;entryX=0.583;entryY=-0.011;entryDx=0;entryDy=0;entryPerimeter=0;startArrow=none;startFill=0;endArrow=none;endFill=0;strokeColor=#808080;exitX=1;exitY=0.5;exitDx=0;exitDy=0;exitPerimeter=0;" edge="1" parent="1" source="UueAJWfQZIYLhgzw-uvl-149">
          <mxGeometry relative="1" as="geometry">
            <mxPoint x="681" y="830" as="sourcePoint" />
            <mxPoint x="681" y="1070" as="targetPoint" />
            <Array as="points">
              <mxPoint x="681" y="880" />
              <mxPoint x="681" y="880" />
            </Array>
          </mxGeometry>
        </mxCell>
        <mxCell id="UueAJWfQZIYLhgzw-uvl-118" style="edgeStyle=orthogonalEdgeStyle;rounded=0;orthogonalLoop=1;jettySize=auto;html=1;entryX=0.583;entryY=-0.011;entryDx=0;entryDy=0;entryPerimeter=0;startArrow=none;startFill=0;endArrow=none;endFill=0;strokeColor=#808080;exitX=1;exitY=0.5;exitDx=0;exitDy=0;exitPerimeter=0;" edge="1" parent="1">
          <mxGeometry relative="1" as="geometry">
            <mxPoint x="710.4300000000001" y="735" as="sourcePoint" />
            <mxPoint x="710.4300000000001" y="1070" as="targetPoint" />
            <Array as="points">
              <mxPoint x="710.4300000000001" y="850" />
              <mxPoint x="710.4300000000001" y="850" />
            </Array>
          </mxGeometry>
        </mxCell>
        <mxCell id="UueAJWfQZIYLhgzw-uvl-119" style="edgeStyle=orthogonalEdgeStyle;rounded=0;orthogonalLoop=1;jettySize=auto;html=1;entryX=0.993;entryY=0.017;entryDx=0;entryDy=0;entryPerimeter=0;startArrow=none;startFill=0;endArrow=none;endFill=0;strokeColor=#808080;exitX=0;exitY=0;exitDx=0;exitDy=30;exitPerimeter=0;" edge="1" parent="1">
          <mxGeometry relative="1" as="geometry">
            <mxPoint x="611.13" y="750" as="sourcePoint" />
            <mxPoint x="610.7099999999999" y="1071.02" as="targetPoint" />
            <Array as="points">
              <mxPoint x="611.13" y="1070" />
            </Array>
          </mxGeometry>
        </mxCell>
        <mxCell id="UueAJWfQZIYLhgzw-uvl-120" style="edgeStyle=orthogonalEdgeStyle;rounded=0;orthogonalLoop=1;jettySize=auto;html=1;entryX=0.321;entryY=-0.002;entryDx=0;entryDy=0;entryPerimeter=0;startArrow=none;startFill=0;endArrow=none;endFill=0;strokeColor=#808080;exitX=1;exitY=0.5;exitDx=0;exitDy=0;exitPerimeter=0;" edge="1" parent="1" target="UueAJWfQZIYLhgzw-uvl-130">
          <mxGeometry relative="1" as="geometry">
            <mxPoint x="410.72" y="910" as="sourcePoint" />
            <mxPoint x="410.42999999999995" y="1045" as="targetPoint" />
            <Array as="points">
              <mxPoint x="411" y="936" />
            </Array>
          </mxGeometry>
        </mxCell>
        <mxCell id="UueAJWfQZIYLhgzw-uvl-121" style="edgeStyle=orthogonalEdgeStyle;rounded=0;orthogonalLoop=1;jettySize=auto;html=1;entryX=0.583;entryY=-0.011;entryDx=0;entryDy=0;entryPerimeter=0;startArrow=none;startFill=0;endArrow=none;endFill=0;exitX=0;exitY=0;exitDx=0;exitDy=30;exitPerimeter=0;strokeColor=#808080;" edge="1" parent="1" source="UueAJWfQZIYLhgzw-uvl-139">
          <mxGeometry relative="1" as="geometry">
            <mxPoint x="316" y="1014.97" as="sourcePoint" />
            <mxPoint x="316" y="1069.97" as="targetPoint" />
            <Array as="points" />
          </mxGeometry>
        </mxCell>
        <mxCell id="UueAJWfQZIYLhgzw-uvl-122" style="edgeStyle=orthogonalEdgeStyle;rounded=0;orthogonalLoop=1;jettySize=auto;html=1;exitX=0;exitY=0;exitDx=0;exitDy=30;exitPerimeter=0;entryX=0.583;entryY=-0.011;entryDx=0;entryDy=0;entryPerimeter=0;startArrow=none;startFill=0;endArrow=none;endFill=0;strokeColor=#808080;" edge="1" parent="1" source="UueAJWfQZIYLhgzw-uvl-141" target="UueAJWfQZIYLhgzw-uvl-129">
          <mxGeometry relative="1" as="geometry" />
        </mxCell>
        <mxCell id="UueAJWfQZIYLhgzw-uvl-123" value="&lt;div style=&quot;font-size: 13px;&quot; align=&quot;left&quot;&gt;&lt;font style=&quot;font-size: 14px;&quot;&gt;Woche&lt;/font&gt;&lt;/div&gt;" style="rounded=1;whiteSpace=wrap;html=1;align=left;strokeColor=#666666;fillColor=#f5f5f5;gradientColor=#b3b3b3;" vertex="1" parent="1">
          <mxGeometry x="240" y="1070" width="770" height="30" as="geometry" />
        </mxCell>
        <mxCell id="UueAJWfQZIYLhgzw-uvl-124" value="&lt;div style=&quot;font-size: 13px;&quot; align=&quot;left&quot;&gt;&lt;font style=&quot;font-size: 14px;&quot;&gt;Datum&lt;/font&gt;&lt;/div&gt;" style="rounded=1;whiteSpace=wrap;html=1;align=left;fillColor=#f5f5f5;strokeColor=#666666;gradientColor=#b3b3b3;" vertex="1" parent="1">
          <mxGeometry x="240" y="1100" width="770" height="30" as="geometry" />
        </mxCell>
        <mxCell id="UueAJWfQZIYLhgzw-uvl-125" value="" style="verticalLabelPosition=bottom;verticalAlign=top;html=1;shape=mxgraph.basic.8_point_star;fillColor=#f8cecc;gradientColor=#ea6b66;strokeColor=#b85450;" vertex="1" parent="1">
          <mxGeometry x="301" y="1120" width="30" height="30" as="geometry" />
        </mxCell>
        <mxCell id="UueAJWfQZIYLhgzw-uvl-127" value="&lt;div style=&quot;font-size: 13px;&quot;&gt;&lt;font style=&quot;font-size: 13px;&quot;&gt;1&lt;/font&gt;&lt;/div&gt;&lt;div style=&quot;font-size: 13px;&quot;&gt;&lt;font style=&quot;font-size: 13px;&quot;&gt;&lt;br&gt;&lt;/font&gt;&lt;/div&gt;&lt;div style=&quot;font-size: 13px;&quot;&gt;&lt;font style=&quot;font-size: 13px;&quot;&gt;11.04&lt;/font&gt;&lt;br&gt;&lt;/div&gt;" style="text;html=1;align=center;verticalAlign=middle;resizable=0;points=[];autosize=1;strokeColor=none;fillColor=none;" vertex="1" parent="1">
          <mxGeometry x="291" y="1070" width="50" height="60" as="geometry" />
        </mxCell>
        <mxCell id="UueAJWfQZIYLhgzw-uvl-128" value="&lt;font color=&quot;#ff5353&quot; style=&quot;font-size: 13px;&quot;&gt;Projektbeginn&lt;/font&gt;" style="text;html=1;align=center;verticalAlign=middle;resizable=0;points=[];autosize=1;strokeColor=none;fillColor=none;fontSize=13;" vertex="1" parent="1">
          <mxGeometry x="266" y="1150" width="100" height="30" as="geometry" />
        </mxCell>
        <mxCell id="UueAJWfQZIYLhgzw-uvl-129" value="&lt;div style=&quot;font-size: 13px;&quot;&gt;&lt;font style=&quot;font-size: 13px;&quot;&gt;2&lt;br&gt;&lt;/font&gt;&lt;/div&gt;&lt;div style=&quot;font-size: 13px;&quot;&gt;&lt;font style=&quot;font-size: 13px;&quot;&gt;&lt;br&gt;&lt;/font&gt;&lt;/div&gt;&lt;div style=&quot;font-size: 13px;&quot;&gt;&lt;font style=&quot;font-size: 13px;&quot;&gt;18.04&lt;/font&gt;&lt;br&gt;&lt;/div&gt;" style="text;html=1;align=center;verticalAlign=middle;resizable=0;points=[];autosize=1;strokeColor=none;fillColor=none;" vertex="1" parent="1">
          <mxGeometry x="336" y="1070" width="60" height="60" as="geometry" />
        </mxCell>
        <mxCell id="UueAJWfQZIYLhgzw-uvl-130" value="&lt;div style=&quot;font-size: 13px;&quot;&gt;&lt;font style=&quot;font-size: 13px;&quot;&gt;3&lt;/font&gt;&lt;/div&gt;&lt;div style=&quot;font-size: 13px;&quot;&gt;&lt;font style=&quot;font-size: 13px;&quot;&gt;&lt;br&gt;&lt;/font&gt;&lt;/div&gt;&lt;div style=&quot;font-size: 13px;&quot;&gt;&lt;font style=&quot;font-size: 13px;&quot;&gt;&lt;font style=&quot;font-size: 13px;&quot;&gt;25.04&lt;/font&gt;&lt;font style=&quot;font-size: 13px;&quot;&gt;&lt;br&gt;&lt;/font&gt;&lt;/font&gt;&lt;/div&gt;" style="text;html=1;align=center;verticalAlign=middle;resizable=0;points=[];autosize=1;strokeColor=none;fillColor=none;" vertex="1" parent="1">
          <mxGeometry x="391" y="1070" width="60" height="60" as="geometry" />
        </mxCell>
        <mxCell id="UueAJWfQZIYLhgzw-uvl-131" value="&lt;div style=&quot;font-size: 13px;&quot;&gt;&lt;font style=&quot;font-size: 13px;&quot;&gt;4&lt;/font&gt;&lt;/div&gt;&lt;div style=&quot;font-size: 13px;&quot;&gt;&lt;font style=&quot;font-size: 13px;&quot;&gt;&lt;br&gt;&lt;/font&gt;&lt;/div&gt;&lt;div style=&quot;font-size: 13px;&quot;&gt;&lt;font style=&quot;font-size: 13px;&quot;&gt;&lt;font style=&quot;font-size: 13px;&quot;&gt;02.05&lt;/font&gt;&lt;font style=&quot;font-size: 13px;&quot;&gt;&lt;br&gt;&lt;/font&gt;&lt;/font&gt;&lt;/div&gt;" style="text;html=1;align=center;verticalAlign=middle;resizable=0;points=[];autosize=1;strokeColor=none;fillColor=none;" vertex="1" parent="1">
          <mxGeometry x="441" y="1070" width="60" height="60" as="geometry" />
        </mxCell>
        <mxCell id="UueAJWfQZIYLhgzw-uvl-132" value="&lt;div style=&quot;font-size: 13px;&quot;&gt;&lt;font style=&quot;font-size: 13px;&quot;&gt;5&lt;/font&gt;&lt;/div&gt;&lt;div style=&quot;font-size: 13px;&quot;&gt;&lt;font style=&quot;font-size: 13px;&quot;&gt;&lt;br&gt;&lt;/font&gt;&lt;/div&gt;&lt;div style=&quot;font-size: 13px;&quot;&gt;&lt;font style=&quot;font-size: 13px;&quot;&gt;&lt;font style=&quot;font-size: 13px;&quot;&gt;09.05&lt;/font&gt;&lt;font style=&quot;font-size: 13px;&quot;&gt;&lt;br&gt;&lt;/font&gt;&lt;/font&gt;&lt;/div&gt;" style="text;html=1;align=center;verticalAlign=middle;resizable=0;points=[];autosize=1;strokeColor=none;fillColor=none;" vertex="1" parent="1">
          <mxGeometry x="491" y="1070" width="60" height="60" as="geometry" />
        </mxCell>
        <mxCell id="UueAJWfQZIYLhgzw-uvl-133" value="&lt;font style=&quot;font-size: 13px;&quot;&gt;6&lt;/font&gt;&lt;br&gt;&lt;div style=&quot;font-size: 13px;&quot;&gt;&lt;font style=&quot;font-size: 13px;&quot;&gt;&lt;br&gt;&lt;/font&gt;&lt;/div&gt;&lt;div style=&quot;font-size: 13px;&quot;&gt;&lt;font style=&quot;font-size: 13px;&quot;&gt;&lt;font style=&quot;font-size: 13px;&quot;&gt;16.05&lt;/font&gt;&lt;font style=&quot;font-size: 13px;&quot;&gt;&lt;br&gt;&lt;/font&gt;&lt;/font&gt;&lt;/div&gt;" style="text;html=1;align=center;verticalAlign=middle;resizable=0;points=[];autosize=1;strokeColor=none;fillColor=none;" vertex="1" parent="1">
          <mxGeometry x="541" y="1070" width="60" height="60" as="geometry" />
        </mxCell>
        <mxCell id="UueAJWfQZIYLhgzw-uvl-134" value="&lt;div style=&quot;font-size: 13px;&quot;&gt;7&lt;br&gt;&lt;/div&gt;&lt;div style=&quot;font-size: 13px;&quot;&gt;&lt;font style=&quot;font-size: 13px;&quot;&gt;&lt;br&gt;&lt;/font&gt;&lt;/div&gt;&lt;div style=&quot;font-size: 13px;&quot;&gt;&lt;font style=&quot;font-size: 13px;&quot;&gt;&lt;font style=&quot;font-size: 13px;&quot;&gt;23.05&lt;/font&gt;&lt;font style=&quot;font-size: 13px;&quot;&gt;&lt;br&gt;&lt;/font&gt;&lt;/font&gt;&lt;/div&gt;" style="text;html=1;align=center;verticalAlign=middle;resizable=0;points=[];autosize=1;strokeColor=none;fillColor=none;" vertex="1" parent="1">
          <mxGeometry x="595" y="1070" width="60" height="60" as="geometry" />
        </mxCell>
        <mxCell id="UueAJWfQZIYLhgzw-uvl-135" value="&lt;div style=&quot;font-size: 13px;&quot;&gt;&lt;font style=&quot;font-size: 13px;&quot;&gt;8&lt;/font&gt;&lt;/div&gt;&lt;div style=&quot;font-size: 13px;&quot;&gt;&lt;font style=&quot;font-size: 13px;&quot;&gt;&lt;br&gt;&lt;/font&gt;&lt;/div&gt;&lt;div style=&quot;font-size: 13px;&quot;&gt;&lt;font style=&quot;font-size: 13px;&quot;&gt;&lt;font style=&quot;font-size: 13px;&quot;&gt;30.05&lt;/font&gt;&lt;font style=&quot;font-size: 13px;&quot;&gt;&lt;br&gt;&lt;/font&gt;&lt;/font&gt;&lt;/div&gt;" style="text;html=1;align=center;verticalAlign=middle;resizable=0;points=[];autosize=1;strokeColor=none;fillColor=none;" vertex="1" parent="1">
          <mxGeometry x="651" y="1070" width="60" height="60" as="geometry" />
        </mxCell>
        <mxCell id="UueAJWfQZIYLhgzw-uvl-136" value="&lt;div style=&quot;font-size: 13px;&quot;&gt;&lt;font style=&quot;font-size: 13px;&quot;&gt;9&lt;/font&gt;&lt;/div&gt;&lt;div style=&quot;font-size: 13px;&quot;&gt;&lt;font style=&quot;font-size: 13px;&quot;&gt;&lt;br&gt;&lt;/font&gt;&lt;/div&gt;&lt;div style=&quot;font-size: 13px;&quot;&gt;&lt;font style=&quot;font-size: 13px;&quot;&gt;&lt;font style=&quot;font-size: 13px;&quot;&gt;06.06&lt;/font&gt;&lt;font style=&quot;font-size: 13px;&quot;&gt;&lt;br&gt;&lt;/font&gt;&lt;/font&gt;&lt;/div&gt;" style="text;html=1;align=center;verticalAlign=middle;resizable=0;points=[];autosize=1;strokeColor=none;fillColor=none;" vertex="1" parent="1">
          <mxGeometry x="701" y="1070" width="60" height="60" as="geometry" />
        </mxCell>
        <mxCell id="UueAJWfQZIYLhgzw-uvl-137" value="&lt;div style=&quot;font-size: 13px;&quot;&gt;&lt;font style=&quot;font-size: 13px;&quot;&gt;10&lt;/font&gt;&lt;/div&gt;&lt;div style=&quot;font-size: 13px;&quot;&gt;&lt;font style=&quot;font-size: 13px;&quot;&gt;&lt;br&gt;&lt;/font&gt;&lt;/div&gt;&lt;div style=&quot;font-size: 13px;&quot;&gt;&lt;font style=&quot;font-size: 13px;&quot;&gt;&lt;font style=&quot;font-size: 13px;&quot;&gt;13.06&lt;/font&gt;&lt;font style=&quot;font-size: 13px;&quot;&gt;&lt;br&gt;&lt;/font&gt;&lt;/font&gt;&lt;/div&gt;" style="text;html=1;align=center;verticalAlign=middle;resizable=0;points=[];autosize=1;strokeColor=none;fillColor=none;" vertex="1" parent="1">
          <mxGeometry x="751" y="1070" width="60" height="60" as="geometry" />
        </mxCell>
        <mxCell id="UueAJWfQZIYLhgzw-uvl-138" value="" style="verticalLabelPosition=bottom;verticalAlign=top;html=1;shape=mxgraph.basic.8_point_star;fillColor=#f8cecc;gradientColor=#ea6b66;strokeColor=#b85450;" vertex="1" parent="1">
          <mxGeometry x="716" y="1120" width="30" height="30" as="geometry" />
        </mxCell>
        <mxCell id="UueAJWfQZIYLhgzw-uvl-139" value="Recherche" style="html=1;shadow=0;dashed=0;align=center;verticalAlign=middle;shape=mxgraph.arrows2.arrow;dy=0;dx=10;notch=0;fillColor=#6d8764;fontColor=#ffffff;strokeColor=#3A5431;fontSize=13;" vertex="1" parent="1">
          <mxGeometry x="316" y="960" width="155" height="30" as="geometry" />
        </mxCell>
        <mxCell id="UueAJWfQZIYLhgzw-uvl-140" value="Organisation" style="html=1;shadow=0;dashed=0;align=center;verticalAlign=middle;shape=mxgraph.arrows2.arrow;dy=0;dx=10;notch=0;fillColor=#6d8764;fontColor=#ffffff;strokeColor=#3A5431;fontSize=13;" vertex="1" parent="1">
          <mxGeometry x="316" y="1000" width="105" height="30" as="geometry" />
        </mxCell>
        <mxCell id="UueAJWfQZIYLhgzw-uvl-141" value="Entwurf" style="html=1;shadow=0;dashed=0;align=center;verticalAlign=middle;shape=mxgraph.arrows2.arrow;dy=0;dx=10;notch=0;fillColor=#6d8764;fontColor=#ffffff;strokeColor=#3A5431;fontSize=13;" vertex="1" parent="1">
          <mxGeometry x="371" y="920" width="150" height="30" as="geometry" />
        </mxCell>
        <mxCell id="UueAJWfQZIYLhgzw-uvl-142" style="edgeStyle=orthogonalEdgeStyle;rounded=0;orthogonalLoop=1;jettySize=auto;html=1;entryX=0.583;entryY=-0.011;entryDx=0;entryDy=0;entryPerimeter=0;startArrow=none;startFill=0;endArrow=none;endFill=0;strokeColor=#808080;exitX=1;exitY=0.5;exitDx=0;exitDy=0;exitPerimeter=0;" edge="1" parent="1" source="UueAJWfQZIYLhgzw-uvl-139">
          <mxGeometry relative="1" as="geometry">
            <mxPoint x="470" y="1020" as="sourcePoint" />
            <mxPoint x="470.43" y="1069" as="targetPoint" />
            <Array as="points">
              <mxPoint x="470" y="1015" />
              <mxPoint x="470" y="1050" />
            </Array>
          </mxGeometry>
        </mxCell>
        <mxCell id="UueAJWfQZIYLhgzw-uvl-143" style="edgeStyle=orthogonalEdgeStyle;rounded=0;orthogonalLoop=1;jettySize=auto;html=1;startArrow=none;startFill=0;endArrow=none;endFill=0;exitX=1;exitY=0.5;exitDx=0;exitDy=0;exitPerimeter=0;strokeColor=#808080;" edge="1" parent="1" source="UueAJWfQZIYLhgzw-uvl-140">
          <mxGeometry relative="1" as="geometry">
            <mxPoint x="421" y="1010" as="sourcePoint" />
            <mxPoint x="421" y="1070" as="targetPoint" />
            <Array as="points">
              <mxPoint x="421" y="1030" />
              <mxPoint x="421" y="1030" />
            </Array>
          </mxGeometry>
        </mxCell>
        <mxCell id="UueAJWfQZIYLhgzw-uvl-144" value="" style="triangle;whiteSpace=wrap;html=1;rotation=-90;fillColor=#b1ddf0;strokeColor=#10739e;" vertex="1" parent="1">
          <mxGeometry x="411" y="1120" width="20" height="30" as="geometry" />
        </mxCell>
        <mxCell id="UueAJWfQZIYLhgzw-uvl-145" value="Implementierung Kommunikation" style="html=1;shadow=0;dashed=0;align=center;verticalAlign=middle;shape=mxgraph.arrows2.arrow;dy=0;dx=10;notch=0;fillColor=#6d8764;fontColor=#ffffff;strokeColor=#3A5431;fontSize=13;" vertex="1" parent="1">
          <mxGeometry x="411" y="840" width="200" height="30" as="geometry" />
        </mxCell>
        <mxCell id="UueAJWfQZIYLhgzw-uvl-147" value="Webseitendesign" style="html=1;shadow=0;dashed=0;align=center;verticalAlign=middle;shape=mxgraph.arrows2.arrow;dy=0;dx=10;notch=0;fillColor=#6d8764;fontColor=#ffffff;strokeColor=#3A5431;fontSize=13;" vertex="1" parent="1">
          <mxGeometry x="411" y="880" width="110" height="30" as="geometry" />
        </mxCell>
        <mxCell id="UueAJWfQZIYLhgzw-uvl-148" value="Präsentation" style="html=1;shadow=0;dashed=0;align=center;verticalAlign=middle;shape=mxgraph.arrows2.arrow;dy=0;dx=10;notch=0;fillColor=#6d8764;fontColor=#ffffff;strokeColor=#3A5431;fontSize=13;" vertex="1" parent="1">
          <mxGeometry x="611" y="720" width="100" height="30" as="geometry" />
        </mxCell>
        <mxCell id="UueAJWfQZIYLhgzw-uvl-149" value="Testen" style="html=1;shadow=0;dashed=0;align=center;verticalAlign=middle;shape=mxgraph.arrows2.arrow;dy=0;dx=10;notch=0;fillColor=#6d8764;fontColor=#ffffff;strokeColor=#3A5431;fontSize=13;" vertex="1" parent="1">
          <mxGeometry x="581" y="800" width="100" height="30" as="geometry" />
        </mxCell>
        <mxCell id="UueAJWfQZIYLhgzw-uvl-150" value="Implementierung Webseite" style="html=1;shadow=0;dashed=0;align=center;verticalAlign=middle;shape=mxgraph.arrows2.arrow;dy=0;dx=10;notch=0;fillColor=#6d8764;fontColor=#ffffff;strokeColor=#3A5431;fontSize=13;" vertex="1" parent="1">
          <mxGeometry x="531" y="880" width="199" height="30" as="geometry" />
        </mxCell>
        <mxCell id="UueAJWfQZIYLhgzw-uvl-151" style="edgeStyle=orthogonalEdgeStyle;rounded=0;orthogonalLoop=1;jettySize=auto;html=1;entryX=0.583;entryY=-0.011;entryDx=0;entryDy=0;entryPerimeter=0;startArrow=none;startFill=0;endArrow=none;endFill=0;strokeColor=#808080;" edge="1" parent="1">
          <mxGeometry relative="1" as="geometry">
            <mxPoint x="531" y="910" as="sourcePoint" />
            <mxPoint x="531" y="1070" as="targetPoint" />
            <Array as="points">
              <mxPoint x="531.29" y="961" />
            </Array>
          </mxGeometry>
        </mxCell>
        <mxCell id="UueAJWfQZIYLhgzw-uvl-154" value="&lt;div style=&quot;font-size: 13px;&quot;&gt;&lt;font style=&quot;font-size: 13px;&quot;&gt;11&lt;/font&gt;&lt;/div&gt;&lt;div style=&quot;font-size: 13px;&quot;&gt;&lt;font style=&quot;font-size: 13px;&quot;&gt;&lt;br&gt;&lt;/font&gt;&lt;/div&gt;&lt;div style=&quot;font-size: 13px;&quot;&gt;&lt;font style=&quot;font-size: 13px;&quot;&gt;&lt;font style=&quot;font-size: 13px;&quot;&gt;20.06&lt;/font&gt;&lt;font style=&quot;font-size: 13px;&quot;&gt;&lt;br&gt;&lt;/font&gt;&lt;/font&gt;&lt;/div&gt;" style="text;html=1;align=center;verticalAlign=middle;resizable=0;points=[];autosize=1;strokeColor=none;fillColor=none;" vertex="1" parent="1">
          <mxGeometry x="801" y="1070" width="60" height="60" as="geometry" />
        </mxCell>
        <mxCell id="UueAJWfQZIYLhgzw-uvl-155" value="&lt;div style=&quot;font-size: 13px;&quot;&gt;&lt;font style=&quot;font-size: 13px;&quot;&gt;12&lt;/font&gt;&lt;/div&gt;&lt;div style=&quot;font-size: 13px;&quot;&gt;&lt;font style=&quot;font-size: 13px;&quot;&gt;&lt;br&gt;&lt;/font&gt;&lt;/div&gt;&lt;div style=&quot;font-size: 13px;&quot;&gt;&lt;font style=&quot;font-size: 13px;&quot;&gt;&lt;font style=&quot;font-size: 13px;&quot;&gt;27.06&lt;/font&gt;&lt;font style=&quot;font-size: 13px;&quot;&gt;&lt;br&gt;&lt;/font&gt;&lt;/font&gt;&lt;/div&gt;" style="text;html=1;align=center;verticalAlign=middle;resizable=0;points=[];autosize=1;strokeColor=none;fillColor=none;" vertex="1" parent="1">
          <mxGeometry x="851" y="1070" width="60" height="60" as="geometry" />
        </mxCell>
        <mxCell id="UueAJWfQZIYLhgzw-uvl-156" value="&lt;div style=&quot;font-size: 13px;&quot;&gt;&lt;font style=&quot;font-size: 13px;&quot;&gt;13&lt;/font&gt;&lt;/div&gt;&lt;div style=&quot;font-size: 13px;&quot;&gt;&lt;font style=&quot;font-size: 13px;&quot;&gt;&lt;br&gt;&lt;/font&gt;&lt;/div&gt;&lt;div style=&quot;font-size: 13px;&quot;&gt;&lt;font style=&quot;font-size: 13px;&quot;&gt;&lt;font style=&quot;font-size: 13px;&quot;&gt;04.07&lt;/font&gt;&lt;font style=&quot;font-size: 13px;&quot;&gt;&lt;br&gt;&lt;/font&gt;&lt;/font&gt;&lt;/div&gt;" style="text;html=1;align=center;verticalAlign=middle;resizable=0;points=[];autosize=1;strokeColor=none;fillColor=none;" vertex="1" parent="1">
          <mxGeometry x="901" y="1070" width="60" height="60" as="geometry" />
        </mxCell>
        <mxCell id="UueAJWfQZIYLhgzw-uvl-157" value="&lt;div style=&quot;font-size: 13px;&quot;&gt;&lt;font style=&quot;font-size: 13px;&quot;&gt;14&lt;/font&gt;&lt;/div&gt;&lt;div style=&quot;font-size: 13px;&quot;&gt;&lt;font style=&quot;font-size: 13px;&quot;&gt;&lt;br&gt;&lt;/font&gt;&lt;/div&gt;&lt;div style=&quot;font-size: 13px;&quot;&gt;&lt;font style=&quot;font-size: 13px;&quot;&gt;&lt;font style=&quot;font-size: 13px;&quot;&gt;11.07&lt;/font&gt;&lt;font style=&quot;font-size: 13px;&quot;&gt;&lt;br&gt;&lt;/font&gt;&lt;/font&gt;&lt;/div&gt;" style="text;html=1;align=center;verticalAlign=middle;resizable=0;points=[];autosize=1;strokeColor=none;fillColor=none;" vertex="1" parent="1">
          <mxGeometry x="955" y="1070" width="50" height="60" as="geometry" />
        </mxCell>
        <mxCell id="UueAJWfQZIYLhgzw-uvl-161" value="" style="triangle;whiteSpace=wrap;html=1;rotation=-90;fillColor=#b1ddf0;strokeColor=#10739e;" vertex="1" parent="1">
          <mxGeometry x="601" y="1120" width="20" height="30" as="geometry" />
        </mxCell>
        <mxCell id="UueAJWfQZIYLhgzw-uvl-162" style="edgeStyle=orthogonalEdgeStyle;rounded=0;orthogonalLoop=1;jettySize=auto;html=1;entryX=0.583;entryY=-0.011;entryDx=0;entryDy=0;entryPerimeter=0;startArrow=none;startFill=0;endArrow=none;endFill=0;strokeColor=#808080;exitX=1;exitY=0.5;exitDx=0;exitDy=0;exitPerimeter=0;" edge="1" parent="1">
          <mxGeometry relative="1" as="geometry">
            <mxPoint x="731.37" y="895" as="sourcePoint" />
            <mxPoint x="731.37" y="1070" as="targetPoint" />
            <Array as="points">
              <mxPoint x="730.37" y="990" />
            </Array>
          </mxGeometry>
        </mxCell>
        <mxCell id="UueAJWfQZIYLhgzw-uvl-163" value="&lt;div style=&quot;font-size: 13px;&quot;&gt;&lt;font color=&quot;#3399ff&quot; style=&quot;font-size: 13px;&quot;&gt;Fertigstellung&lt;/font&gt;&lt;/div&gt;&lt;div style=&quot;font-size: 13px;&quot;&gt;&lt;font color=&quot;#3399ff&quot; style=&quot;font-size: 13px;&quot;&gt;Lastenheft&lt;br style=&quot;font-size: 13px;&quot;&gt;&lt;/font&gt;&lt;/div&gt;" style="text;html=1;align=center;verticalAlign=middle;resizable=0;points=[];autosize=1;strokeColor=none;fillColor=none;fontSize=13;" vertex="1" parent="1">
          <mxGeometry x="371" y="1210" width="100" height="40" as="geometry" />
        </mxCell>
        <mxCell id="UueAJWfQZIYLhgzw-uvl-164" value="&lt;div style=&quot;font-size: 13px;&quot;&gt;&lt;font color=&quot;#3399ff&quot; style=&quot;font-size: 13px;&quot;&gt;Fertigstellung&lt;/font&gt;&lt;/div&gt;&lt;div style=&quot;font-size: 13px;&quot;&gt;&lt;font color=&quot;#3399ff&quot; style=&quot;font-size: 13px;&quot;&gt;Pflichtenheft &amp;amp;&lt;/font&gt;&lt;/div&gt;&lt;div style=&quot;font-size: 13px;&quot;&gt;&lt;font color=&quot;#3399ff&quot; style=&quot;font-size: 13px;&quot;&gt;Architekturentwurf&lt;br style=&quot;font-size: 13px;&quot;&gt;&lt;/font&gt;&lt;/div&gt;" style="text;html=1;align=center;verticalAlign=middle;resizable=0;points=[];autosize=1;strokeColor=none;fillColor=none;fontSize=13;" vertex="1" parent="1">
          <mxGeometry x="456" y="1200" width="130" height="60" as="geometry" />
        </mxCell>
        <mxCell id="UueAJWfQZIYLhgzw-uvl-165" value="&lt;div style=&quot;font-size: 13px;&quot;&gt;&lt;font color=&quot;#3399ff&quot; style=&quot;font-size: 13px;&quot;&gt;Funktionsfähige&lt;/font&gt;&lt;/div&gt;&lt;div style=&quot;font-size: 13px;&quot;&gt;&lt;font color=&quot;#3399ff&quot; style=&quot;font-size: 13px;&quot;&gt;Kommunikation&lt;/font&gt;&lt;/div&gt;&lt;div style=&quot;font-size: 13px;&quot;&gt;&lt;font color=&quot;#3399ff&quot; style=&quot;font-size: 13px;&quot;&gt;(mit Docker)&lt;br style=&quot;font-size: 13px;&quot;&gt;&lt;/font&gt;&lt;/div&gt;" style="text;html=1;align=center;verticalAlign=middle;resizable=0;points=[];autosize=1;strokeColor=none;fillColor=none;fontSize=13;" vertex="1" parent="1">
          <mxGeometry x="556" y="1200" width="120" height="60" as="geometry" />
        </mxCell>
        <mxCell id="UueAJWfQZIYLhgzw-uvl-166" value="&lt;div style=&quot;font-size: 13px;&quot;&gt;&lt;font color=&quot;#ff5353&quot; style=&quot;font-size: 13px;&quot;&gt;Zwischen-&lt;/font&gt;&lt;/div&gt;&lt;div style=&quot;font-size: 13px;&quot;&gt;&lt;font color=&quot;#ff5353&quot; style=&quot;font-size: 13px;&quot;&gt;präsentation&lt;br style=&quot;font-size: 13px;&quot;&gt;&lt;/font&gt;&lt;/div&gt;" style="text;html=1;align=center;verticalAlign=middle;resizable=0;points=[];autosize=1;strokeColor=none;fillColor=none;fontSize=13;" vertex="1" parent="1">
          <mxGeometry x="681" y="1150" width="100" height="40" as="geometry" />
        </mxCell>
        <mxCell id="UueAJWfQZIYLhgzw-uvl-169" value="" style="endArrow=none;html=1;rounded=0;entryX=0;entryY=0.5;entryDx=0;entryDy=0;exitX=0.5;exitY=0.125;exitDx=0;exitDy=0;exitPerimeter=0;fillColor=#dae8fc;gradientColor=#7ea6e0;strokeColor=#6c8ebf;fontSize=13;" edge="1" parent="1" source="UueAJWfQZIYLhgzw-uvl-163" target="UueAJWfQZIYLhgzw-uvl-144">
          <mxGeometry width="50" height="50" relative="1" as="geometry">
            <mxPoint x="621" y="1090" as="sourcePoint" />
            <mxPoint x="671" y="1040" as="targetPoint" />
          </mxGeometry>
        </mxCell>
        <mxCell id="UueAJWfQZIYLhgzw-uvl-170" value="" style="endArrow=none;html=1;rounded=0;fillColor=#dae8fc;gradientColor=#7ea6e0;strokeColor=#6c8ebf;entryX=0;entryY=0.5;entryDx=0;entryDy=0;exitX=0.455;exitY=0.167;exitDx=0;exitDy=0;exitPerimeter=0;fontSize=13;" edge="1" parent="1" source="UueAJWfQZIYLhgzw-uvl-165" target="UueAJWfQZIYLhgzw-uvl-161">
          <mxGeometry width="50" height="50" relative="1" as="geometry">
            <mxPoint x="605" y="1160" as="sourcePoint" />
            <mxPoint x="571" y="1140" as="targetPoint" />
          </mxGeometry>
        </mxCell>
        <mxCell id="UueAJWfQZIYLhgzw-uvl-172" value="" style="endArrow=none;html=1;rounded=0;exitX=0.5;exitY=0.125;exitDx=0;exitDy=0;exitPerimeter=0;fillColor=#dae8fc;gradientColor=#7ea6e0;strokeColor=#6c8ebf;entryX=0;entryY=0.5;entryDx=0;entryDy=0;fontSize=13;" edge="1" parent="1">
          <mxGeometry width="50" height="50" relative="1" as="geometry">
            <mxPoint x="520.72" y="1165" as="sourcePoint" />
            <mxPoint x="520.72" y="1145" as="targetPoint" />
            <Array as="points">
              <mxPoint x="521" y="1210" />
            </Array>
          </mxGeometry>
        </mxCell>
        <mxCell id="UueAJWfQZIYLhgzw-uvl-173" value="" style="triangle;whiteSpace=wrap;html=1;rotation=-90;fillColor=#d5e8d4;strokeColor=#82b366;" vertex="1" parent="1">
          <mxGeometry x="635" y="1120" width="20" height="30" as="geometry" />
        </mxCell>
        <mxCell id="UueAJWfQZIYLhgzw-uvl-174" value="" style="triangle;whiteSpace=wrap;html=1;rotation=-90;fillColor=#d5e8d4;strokeColor=#82b366;" vertex="1" parent="1">
          <mxGeometry x="501" y="1120" width="20" height="30" as="geometry" />
        </mxCell>
        <mxCell id="UueAJWfQZIYLhgzw-uvl-175" value="&lt;div style=&quot;font-size: 13px;&quot;&gt;&lt;font color=&quot;#66cc00&quot; style=&quot;font-size: 13px;&quot;&gt;Test-Webseite +&lt;br style=&quot;font-size: 13px;&quot;&gt;&lt;/font&gt;&lt;/div&gt;&lt;div style=&quot;font-size: 13px;&quot;&gt;&lt;font color=&quot;#66cc00&quot; style=&quot;font-size: 13px;&quot;&gt;Standard-&lt;/font&gt;&lt;/div&gt;&lt;div style=&quot;font-size: 13px;&quot;&gt;&lt;font color=&quot;#66cc00&quot; style=&quot;font-size: 13px;&quot;&gt;funktionalität&lt;br style=&quot;font-size: 13px;&quot;&gt;&lt;/font&gt;&lt;/div&gt;" style="text;html=1;align=center;verticalAlign=middle;resizable=0;points=[];autosize=1;strokeColor=none;fillColor=none;fontSize=13;" vertex="1" parent="1">
          <mxGeometry x="585" y="1270" width="120" height="60" as="geometry" />
        </mxCell>
        <mxCell id="UueAJWfQZIYLhgzw-uvl-178" value="&lt;div style=&quot;font-size: 13px;&quot;&gt;&lt;font color=&quot;#66cc00&quot; style=&quot;font-size: 13px;&quot;&gt;Design &amp;amp;&amp;nbsp;&lt;/font&gt;&lt;/div&gt;&lt;div style=&quot;font-size: 13px;&quot;&gt;&lt;font color=&quot;#66cc00&quot; style=&quot;font-size: 13px;&quot;&gt;Mockups&lt;/font&gt;&lt;/div&gt;" style="text;html=1;align=center;verticalAlign=middle;resizable=0;points=[];autosize=1;strokeColor=none;fillColor=none;fontSize=13;" vertex="1" parent="1">
          <mxGeometry x="471" y="1280" width="80" height="40" as="geometry" />
        </mxCell>
        <mxCell id="UueAJWfQZIYLhgzw-uvl-179" value="" style="triangle;whiteSpace=wrap;html=1;rotation=-90;fillColor=#b1ddf0;strokeColor=#10739e;" vertex="1" parent="1">
          <mxGeometry x="511" y="1120" width="20" height="30" as="geometry" />
        </mxCell>
      </root>
    </mxGraphModel>
  </diagram>
</mxfile>
